<svg xmlns="http://www.w3.org/2000/svg" viewBox="0 0 294 213"><defs><style>.cls-1{fill:#93621e;}.cls-2,.cls-6,.cls-7{fill:none;}.cls-3{fill:#f8a32b;}.cls-4{fill:#e0942d;}.cls-5{fill:#eff9fe;}.cls-6,.cls-7{stroke:#8a91a0;stroke-miterlimit:10;}.cls-6{stroke-width:2px;}</style></defs><title>img1</title><g id="circulo1"><polygon class="cls-1" points="89 192.86 89 192.86 89 192.86 89 192.86"/><path class="cls-1" d="M144,289.86V216H118v47.71A108,108,0,0,0,144,289.86Z" transform="translate(-55 -97)"/><path class="cls-1" d="M239,211v79h-5V248H216v27H197V243H186v9H174v18H158v20l-14-.14a110.07,110.07,0,0,0,136-7.13V200Z" transform="translate(-55 -97)"/><polygon class="cls-2" points="190 213 211 213 213.34 106.13 190 112.39 190 213"/><path class="cls-3" d="M158,171v57h14v10h4V196h22V160h6V134h26v33h15v42.39l23.34-6.26L269,173h8V163h11v11h8l-1.7,93.39A104.75,104.75,0,0,0,316,203.5C316,144.68,267.42,97,207.5,97S99,144.68,99,203.5a104.66,104.66,0,0,0,19,60.21V216h14.38l.62-45Z" transform="translate(-55 -97)"/><path class="cls-4" d="M288,174V163H277v10h-8l-.66,30.13L280,200v82.73a107.57,107.57,0,0,0,14.3-15.34L296,174Z" transform="translate(-55 -97)"/><polygon class="cls-4" points="89 192.86 89 192.86 103 193 103 173 119 173 119 155 131 155 131 146 142 146 142 178 161 178 161 151 179 151 179 193 184 193 184 114 190 112.39 190 70 175 70 175 37 149 37 149 63 143 63 143 99 121 99 121 141 117 141 117 131 103 131 103 74 78 74 77.38 119 89 119 89 192.86"/></g><g id="circulo2"><circle class="cls-5" cx="46" cy="64" r="46"/><rect class="cls-5" x="219" y="34" width="75" height="23"/><rect class="cls-5" x="219" y="159" width="57" height="17"/></g><g id="iconos"><rect class="cls-6" x="18" y="45" width="53" height="36"/><line class="cls-6" x1="28" y1="51" x2="28" y2="72"/><path class="cls-6" d="M88,159v8" transform="translate(-55 -97)"/><line class="cls-6" x1="37" y1="57" x2="37" y2="70"/><line class="cls-6" x1="42" y1="60" x2="42" y2="70"/><line class="cls-6" x1="51" y1="57" x2="51" y2="70"/><line class="cls-6" x1="57" y1="62" x2="57" y2="70"/><line class="cls-6" x1="63" y1="60" x2="63" y2="70"/><line class="cls-6" x1="26" y1="71" x2="66" y2="71"/><line class="cls-7" x1="246" y1="40" x2="285" y2="40"/><line class="cls-7" x1="246.5" y1="45.5" x2="284.5" y2="45.5"/><line class="cls-7" x1="246.5" y1="50.5" x2="284.5" y2="50.5"/><ellipse class="cls-3" cx="233.5" cy="44.5" rx="8" ry="7"/><line class="cls-6" x1="239" y1="164" x2="268" y2="164"/><line class="cls-6" x1="240" y1="170" x2="267" y2="170"/><ellipse class="cls-3" cx="230" cy="168.5" rx="5" ry="4.5"/></g></svg>